<svg xmlns="http://www.w3.org/2000/svg" xmlns:xlink="http://www.w3.org/1999/xlink" width="200" zoomAndPan="magnify" viewBox="0 0 150 149.999998" height="200" preserveAspectRatio="xMidYMid meet" version="1.0"><defs><g/><clipPath id="0931fd3af2"><path d="M 18.808594 18.339844 L 131.664062 18.339844 L 131.664062 131.191406 L 18.808594 131.191406 Z M 18.808594 18.339844 " clip-rule="nonzero"/></clipPath><clipPath id="7efd0719cb"><path d="M 75.234375 18.339844 C 44.070312 18.339844 18.808594 43.601562 18.808594 74.765625 C 18.808594 105.929688 44.070312 131.191406 75.234375 131.191406 C 106.398438 131.191406 131.664062 105.929688 131.664062 74.765625 C 131.664062 43.601562 106.398438 18.339844 75.234375 18.339844 Z M 75.234375 18.339844 " clip-rule="nonzero"/></clipPath></defs><rect x="-15" width="180" fill="#ffffff" y="-15" height="179.999997" fill-opacity="1"/><rect x="-15" width="180" fill="#ffffff" y="-15" height="179.999997" fill-opacity="1"/><path fill="#f20028" d="M 150.765625 74.585938 C 150.765625 79.996094 141.511719 84.296875 140.355469 89.359375 C 139.164062 94.585938 145.605469 102.453125 143.320312 107.167969 C 140.996094 111.960938 130.785156 111.839844 127.488281 115.957031 C 124.171875 120.09375 126.550781 129.980469 122.398438 133.285156 C 118.265625 136.574219 109.121094 132.074219 104.3125 134.386719 C 99.578125 136.660156 97.425781 146.609375 92.179688 147.796875 C 87.101562 148.949219 80.84375 140.945312 75.410156 140.945312 C 69.980469 140.945312 63.722656 148.949219 58.640625 147.800781 C 53.394531 146.613281 51.238281 136.664062 46.503906 134.386719 C 41.691406 132.078125 32.550781 136.574219 28.417969 133.289062 C 24.261719 129.984375 26.640625 120.097656 23.324219 115.960938 C 20.023438 111.84375 9.8125 111.964844 7.492188 107.171875 C 5.210938 102.457031 11.644531 94.585938 10.453125 89.359375 C 9.296875 84.296875 0.0429688 79.996094 0.0429688 74.585938 C 0.0429688 69.175781 9.296875 64.871094 10.453125 59.808594 C 11.644531 54.582031 5.207031 46.714844 7.492188 41.996094 C 9.8125 37.203125 20.023438 37.324219 23.324219 33.207031 C 26.640625 29.070312 24.261719 19.183594 28.414062 15.878906 C 32.546875 12.589844 41.691406 17.089844 46.503906 14.777344 C 51.238281 12.5 53.390625 2.554688 58.640625 1.367188 C 63.71875 0.214844 69.980469 8.222656 75.410156 8.222656 C 80.84375 8.222656 87.101562 0.214844 92.179688 1.367188 C 97.429688 2.554688 99.582031 12.503906 104.3125 14.777344 C 109.125 17.089844 118.269531 12.59375 122.402344 15.882812 C 126.554688 19.1875 124.171875 29.074219 127.488281 33.210938 C 130.789062 37.328125 141 37.207031 143.320312 42 C 145.605469 46.714844 139.164062 54.582031 140.359375 59.808594 C 141.507812 64.871094 150.765625 69.175781 150.765625 74.585938 Z M 150.765625 74.585938 " fill-opacity="1" fill-rule="nonzero"/><path fill="#ffffff" d="M 56.382812 119.285156 C 51.199219 119.285156 46.988281 114.175781 46.988281 107.871094 C 46.988281 101.613281 51.199219 96.53125 56.382812 96.53125 C 61.566406 96.53125 65.777344 101.613281 65.777344 107.871094 C 65.777344 114.175781 61.566406 119.285156 56.382812 119.285156 Z M 56.382812 100.757812 C 53.605469 100.757812 51.246094 104.015625 51.246094 107.871094 C 51.246094 111.75 53.605469 115.003906 56.382812 115.003906 C 59.171875 115.003906 61.511719 111.75 61.511719 107.871094 C 61.511719 104.015625 59.171875 100.757812 56.382812 100.757812 Z M 56.382812 100.757812 " fill-opacity="1" fill-rule="nonzero"/><path fill="#ffffff" d="M 74.046875 119.433594 L 69.800781 119.433594 L 69.800781 97.097656 L 83.164062 97.097656 L 83.164062 101.359375 L 74.046875 101.359375 Z M 74.046875 119.433594 " fill-opacity="1" fill-rule="nonzero"/><path fill="#ffffff" d="M 71.929688 106.359375 L 80.972656 106.359375 L 80.972656 110.617188 L 71.929688 110.617188 Z M 71.929688 106.359375 " fill-opacity="1" fill-rule="nonzero"/><path fill="#ffffff" d="M 89.421875 119.433594 L 85.167969 119.433594 L 85.167969 97.097656 L 98.515625 97.097656 L 98.515625 101.359375 L 89.421875 101.359375 Z M 89.421875 119.433594 " fill-opacity="1" fill-rule="nonzero"/><path fill="#ffffff" d="M 87.292969 106.359375 L 96.34375 106.359375 L 96.34375 110.617188 L 87.292969 110.617188 Z M 87.292969 106.359375 " fill-opacity="1" fill-rule="nonzero"/><path fill="#ffffff" d="M 104.542969 63.300781 C 101.21875 63.300781 98.511719 60.597656 98.511719 57.296875 C 98.511719 54 101.21875 51.316406 104.542969 51.316406 C 107.855469 51.316406 110.546875 54 110.546875 57.296875 C 110.546875 60.597656 107.855469 63.300781 104.542969 63.300781 Z M 104.542969 54.214844 C 102.832031 54.214844 101.421875 55.597656 101.421875 57.296875 C 101.421875 59.015625 102.832031 60.398438 104.542969 60.398438 C 106.25 60.398438 107.640625 59.015625 107.640625 57.296875 C 107.640625 55.597656 106.25 54.214844 104.542969 54.214844 Z M 104.542969 54.214844 " fill-opacity="1" fill-rule="nonzero"/><path fill="#ffffff" d="M 118.574219 74.824219 C 115.261719 74.824219 112.558594 72.136719 112.558594 68.832031 C 112.558594 65.527344 115.261719 62.835938 118.574219 62.835938 C 121.898438 62.835938 124.589844 65.527344 124.589844 68.832031 C 124.589844 72.136719 121.898438 74.824219 118.574219 74.824219 Z M 118.574219 65.738281 C 116.863281 65.738281 115.464844 67.128906 115.464844 68.832031 C 115.464844 70.539062 116.863281 71.941406 118.574219 71.941406 C 120.292969 71.941406 121.683594 70.539062 121.683594 68.832031 C 121.683594 67.128906 120.292969 65.738281 118.574219 65.738281 Z M 118.574219 65.738281 " fill-opacity="1" fill-rule="nonzero"/><path fill="#ffffff" d="M 100.4375 74.472656 C 100.050781 74.472656 99.667969 74.324219 99.390625 74.023438 C 98.835938 73.441406 98.855469 72.519531 99.421875 71.972656 L 121.117188 51.308594 C 121.695312 50.757812 122.625 50.769531 123.167969 51.339844 C 123.722656 51.929688 123.710938 52.847656 123.132812 53.40625 L 101.453125 74.0625 C 101.152344 74.335938 100.800781 74.472656 100.4375 74.472656 Z M 100.4375 74.472656 " fill-opacity="1" fill-rule="nonzero"/><path fill="#ffffff" d="M 79.632812 39.074219 L 77.066406 39.074219 C 70.425781 39.074219 65.023438 44.867188 65.023438 51.976562 L 65.023438 75.984375 C 65.023438 83.085938 70.425781 88.859375 77.066406 88.859375 L 79.632812 88.859375 C 86.265625 88.859375 91.675781 83.085938 91.675781 75.984375 L 91.675781 51.976562 C 91.675781 44.867188 86.269531 39.074219 79.632812 39.074219 Z M 84.207031 75.984375 C 84.207031 78.679688 82.152344 80.882812 79.632812 80.882812 L 77.066406 80.882812 C 74.539062 80.882812 72.488281 78.679688 72.488281 75.984375 L 72.488281 51.976562 C 72.488281 49.261719 74.539062 47.070312 77.066406 47.070312 L 79.632812 47.070312 C 82.152344 47.070312 84.207031 49.261719 84.207031 51.976562 Z M 84.207031 75.984375 " fill-opacity="1" fill-rule="nonzero"/><path fill="#ffffff" d="M 54.554688 62.804688 C 54.378906 62.609375 54.199219 62.394531 54.03125 62.203125 C 55.996094 59.613281 57.660156 56.363281 57.660156 53.03125 C 57.660156 44.996094 51.453125 38.4375 43.839844 38.4375 C 38.253906 38.4375 33.253906 41.953125 31.078125 47.351562 L 37.726562 50.320312 C 38.773438 47.730469 41.15625 46.050781 43.839844 46.050781 C 47.484375 46.050781 50.449219 49.183594 50.449219 53.035156 C 50.449219 54.636719 48.804688 57.351562 46.910156 59.144531 C 43.914062 58.875 40.695312 59.25 38.398438 59.613281 L 39.558594 67.140625 C 43.105469 66.546875 47.402344 66.546875 48.542969 67.125 C 48.785156 67.429688 49.046875 67.71875 49.304688 68.007812 C 49.753906 68.507812 50.136719 68.945312 50.40625 69.371094 C 51.558594 71.324219 51.96875 73.617188 51.570312 75.8125 C 51.175781 77.925781 50.046875 79.671875 48.417969 80.765625 C 46.765625 81.859375 44.773438 82.179688 42.800781 81.644531 C 40.742188 81.085938 38.964844 79.671875 37.800781 77.722656 C 37.21875 76.742188 36.816406 75.671875 36.601562 74.558594 L 29.535156 76.003906 C 29.902344 78.050781 30.636719 79.984375 31.699219 81.773438 C 33.847656 85.382812 37.148438 87.953125 40.980469 88.996094 C 42.234375 89.347656 43.46875 89.496094 44.714844 89.496094 C 47.367188 89.496094 49.960938 88.730469 52.242188 87.207031 C 55.589844 84.988281 57.863281 81.453125 58.632812 77.28125 C 59.414062 73.179688 58.644531 68.921875 56.488281 65.304688 C 55.871094 64.289062 55.175781 63.492188 54.554688 62.804688 Z M 54.554688 62.804688 " fill-opacity="1" fill-rule="nonzero"/><g clip-path="url(#0931fd3af2)"><g clip-path="url(#7efd0719cb)"><path fill="#f20028" d="M 18.808594 18.339844 L 131.664062 18.339844 L 131.664062 131.191406 L 18.808594 131.191406 Z M 18.808594 18.339844 " fill-opacity="1" fill-rule="nonzero"/></g></g><g fill="#ffffff" fill-opacity="1"><g transform="translate(51.105089, 104.936737)"><g><path d="M 18.234375 -9.109375 C 17.910156 -7.179688 17.285156 -5.515625 16.359375 -4.109375 C 15.441406 -2.710938 14.316406 -1.632812 12.984375 -0.875 C 11.648438 -0.125 10.203125 0.25 8.640625 0.25 C 7.035156 0.25 5.671875 -0.140625 4.546875 -0.921875 C 3.421875 -1.710938 2.617188 -2.828125 2.140625 -4.265625 C 1.660156 -5.710938 1.585938 -7.425781 1.921875 -9.40625 C 2.242188 -11.332031 2.863281 -12.992188 3.78125 -14.390625 C 4.707031 -15.796875 5.835938 -16.878906 7.171875 -17.640625 C 8.515625 -18.398438 9.972656 -18.78125 11.546875 -18.78125 C 13.128906 -18.78125 14.476562 -18.382812 15.59375 -17.59375 C 16.71875 -16.8125 17.519531 -15.695312 18 -14.25 C 18.476562 -12.800781 18.554688 -11.085938 18.234375 -9.109375 Z M 16.09375 -9.40625 C 16.363281 -10.988281 16.328125 -12.316406 15.984375 -13.390625 C 15.640625 -14.472656 15.066406 -15.289062 14.265625 -15.84375 C 13.472656 -16.394531 12.53125 -16.671875 11.4375 -16.671875 C 10.289062 -16.671875 9.203125 -16.378906 8.171875 -15.796875 C 7.148438 -15.222656 6.273438 -14.375 5.546875 -13.25 C 4.816406 -12.125 4.316406 -10.742188 4.046875 -9.109375 C 3.785156 -7.535156 3.828125 -6.207031 4.171875 -5.125 C 4.515625 -4.050781 5.082031 -3.234375 5.875 -2.671875 C 6.675781 -2.117188 7.625 -1.84375 8.71875 -1.84375 C 9.863281 -1.84375 10.945312 -2.132812 11.96875 -2.71875 C 13 -3.300781 13.878906 -4.15625 14.609375 -5.28125 C 15.335938 -6.40625 15.832031 -7.78125 16.09375 -9.40625 Z M 16.09375 -9.40625 "/></g></g></g><g fill="#ffffff" fill-opacity="1"><g transform="translate(69.750414, 104.936737)"><g><path d="M 1.078125 0 L 4.15625 -18.515625 L 15.265625 -18.515625 L 14.9375 -16.53125 L 6.078125 -16.53125 L 5.03125 -10.28125 L 13.0625 -10.28125 L 12.734375 -8.28125 L 4.703125 -8.28125 L 3.328125 0 Z M 1.078125 0 "/></g></g></g><g fill="#ffffff" fill-opacity="1"><g transform="translate(83.947581, 104.936737)"><g><path d="M 1.078125 0 L 4.15625 -18.515625 L 15.265625 -18.515625 L 14.9375 -16.53125 L 6.078125 -16.53125 L 5.03125 -10.28125 L 13.0625 -10.28125 L 12.734375 -8.28125 L 4.703125 -8.28125 L 3.328125 0 Z M 1.078125 0 "/></g></g></g><g fill="#ffffff" fill-opacity="1"><g transform="translate(27.816593, 77.185107)"><g><path d="M 15.421875 0.46875 C 12.910156 0.46875 10.6875 0.0390625 8.75 -0.8125 C 6.8125 -1.675781 5.285156 -2.867188 4.171875 -4.390625 C 3.054688 -5.921875 2.476562 -7.679688 2.4375 -9.671875 L 9.71875 -9.671875 C 9.789062 -8.421875 10.363281 -7.410156 11.4375 -6.640625 C 12.507812 -5.878906 13.84375 -5.5 15.4375 -5.5 C 17.09375 -5.5 18.445312 -5.921875 19.5 -6.765625 C 20.550781 -7.617188 21.070312 -8.726562 21.0625 -10.09375 C 21.070312 -11.46875 20.507812 -12.59375 19.375 -13.46875 C 18.25 -14.34375 16.71875 -14.78125 14.78125 -14.78125 L 11.59375 -14.78125 L 11.59375 -20.09375 L 14.78125 -20.09375 C 16.425781 -20.09375 17.765625 -20.503906 18.796875 -21.328125 C 19.835938 -22.160156 20.351562 -23.25 20.34375 -24.59375 C 20.351562 -25.882812 19.910156 -26.929688 19.015625 -27.734375 C 18.117188 -28.535156 16.941406 -28.9375 15.484375 -28.9375 C 14.003906 -28.9375 12.738281 -28.546875 11.6875 -27.765625 C 10.644531 -26.992188 10.097656 -25.957031 10.046875 -24.65625 L 3.125 -24.65625 C 3.15625 -26.625 3.71875 -28.363281 4.8125 -29.875 C 5.90625 -31.382812 7.378906 -32.5625 9.234375 -33.40625 C 11.085938 -34.25 13.179688 -34.671875 15.515625 -34.671875 C 17.878906 -34.671875 19.945312 -34.238281 21.71875 -33.375 C 23.488281 -32.519531 24.863281 -31.363281 25.84375 -29.90625 C 26.832031 -28.457031 27.320312 -26.832031 27.3125 -25.03125 C 27.320312 -23.113281 26.726562 -21.515625 25.53125 -20.234375 C 24.332031 -18.960938 22.773438 -18.148438 20.859375 -17.796875 L 20.859375 -17.53125 C 23.378906 -17.21875 25.296875 -16.347656 26.609375 -14.921875 C 27.929688 -13.503906 28.585938 -11.734375 28.578125 -9.609375 C 28.585938 -7.660156 28.023438 -5.925781 26.890625 -4.40625 C 25.765625 -2.894531 24.207031 -1.703125 22.21875 -0.828125 C 20.238281 0.0351562 17.972656 0.46875 15.421875 0.46875 Z M 15.421875 0.46875 "/></g></g></g><g fill="#ffffff" fill-opacity="1"><g transform="translate(54.353026, 77.185107)"><g><path d="M 16.1875 0.75 C 13.3125 0.738281 10.835938 0.0351562 8.765625 -1.359375 C 6.703125 -2.765625 5.117188 -4.796875 4.015625 -7.453125 C 2.910156 -10.117188 2.363281 -13.320312 2.375 -17.0625 C 2.382812 -22.664062 3.613281 -27 6.0625 -30.0625 C 8.519531 -33.132812 11.894531 -34.671875 16.1875 -34.671875 C 19.039062 -34.671875 21.5 -33.976562 23.5625 -32.59375 C 25.632812 -31.21875 27.226562 -29.21875 28.34375 -26.59375 C 29.457031 -23.96875 30.007812 -20.789062 30 -17.0625 C 29.988281 -11.4375 28.753906 -7.0625 26.296875 -3.9375 C 23.847656 -0.8125 20.476562 0.75 16.1875 0.75 Z M 16.1875 -5.25 C 18.144531 -5.25 19.707031 -6.234375 20.875 -8.203125 C 22.039062 -10.171875 22.617188 -13.125 22.609375 -17.0625 C 22.609375 -20.945312 22.023438 -23.863281 20.859375 -25.8125 C 19.691406 -27.769531 18.132812 -28.75 16.1875 -28.75 C 14.238281 -28.75 12.675781 -27.769531 11.5 -25.8125 C 10.332031 -23.863281 9.742188 -20.945312 9.734375 -17.0625 C 9.722656 -13.125 10.304688 -10.171875 11.484375 -8.203125 C 12.660156 -6.234375 14.226562 -5.25 16.1875 -5.25 Z M 16.1875 -5.25 "/></g></g></g><g fill="#ffffff" fill-opacity="1"><g transform="translate(82.241818, 77.185107)"><g><path d="M 21.5 -6.40625 L 21.5 -8.21875 C 21.507812 -9.582031 21.800781 -10.84375 22.375 -12 C 22.957031 -13.15625 23.8125 -14.078125 24.9375 -14.765625 C 26.0625 -15.460938 27.425781 -15.8125 29.03125 -15.8125 C 30.664062 -15.8125 32.039062 -15.46875 33.15625 -14.78125 C 34.28125 -14.09375 35.128906 -13.171875 35.703125 -12.015625 C 36.285156 -10.859375 36.570312 -9.59375 36.5625 -8.21875 L 36.5625 -6.40625 C 36.570312 -5.039062 36.285156 -3.78125 35.703125 -2.625 C 35.117188 -1.476562 34.265625 -0.554688 33.140625 0.140625 C 32.015625 0.835938 30.644531 1.1875 29.03125 1.1875 C 27.40625 1.1875 26.03125 0.835938 24.90625 0.140625 C 23.789062 -0.554688 22.945312 -1.476562 22.375 -2.625 C 21.800781 -3.78125 21.507812 -5.039062 21.5 -6.40625 Z M 3.9375 -25.984375 L 3.9375 -27.796875 C 3.945312 -29.171875 4.242188 -30.429688 4.828125 -31.578125 C 5.421875 -32.734375 6.273438 -33.65625 7.390625 -34.34375 C 8.503906 -35.039062 9.859375 -35.390625 11.453125 -35.390625 C 13.097656 -35.390625 14.476562 -35.039062 15.59375 -34.34375 C 16.71875 -33.65625 17.566406 -32.734375 18.140625 -31.578125 C 18.722656 -30.429688 19.007812 -29.171875 19 -27.796875 L 19 -25.984375 C 19.007812 -24.609375 18.722656 -23.34375 18.140625 -22.1875 C 17.554688 -21.039062 16.703125 -20.125 15.578125 -19.4375 C 14.453125 -18.757812 13.078125 -18.421875 11.453125 -18.421875 C 9.828125 -18.421875 8.457031 -18.765625 7.34375 -19.453125 C 6.226562 -20.148438 5.382812 -21.070312 4.8125 -22.21875 C 4.238281 -23.363281 3.945312 -24.617188 3.9375 -25.984375 Z M 5.578125 0 L 29.09375 -34.203125 L 33.453125 -34.203125 L 9.9375 0 Z M 26.359375 -8.21875 L 26.359375 -6.40625 C 26.367188 -5.625 26.5625 -4.878906 26.9375 -4.171875 C 27.3125 -3.472656 28.007812 -3.125 29.03125 -3.125 C 30.050781 -3.125 30.75 -3.46875 31.125 -4.15625 C 31.5 -4.84375 31.679688 -5.59375 31.671875 -6.40625 L 31.671875 -8.21875 C 31.679688 -9.039062 31.503906 -9.800781 31.140625 -10.5 C 30.785156 -11.195312 30.082031 -11.546875 29.03125 -11.546875 C 28.03125 -11.546875 27.335938 -11.195312 26.953125 -10.5 C 26.566406 -9.800781 26.367188 -9.039062 26.359375 -8.21875 Z M 8.828125 -27.796875 L 8.828125 -25.984375 C 8.847656 -25.171875 9.046875 -24.421875 9.421875 -23.734375 C 9.796875 -23.046875 10.472656 -22.703125 11.453125 -22.703125 C 12.484375 -22.703125 13.1875 -23.046875 13.5625 -23.734375 C 13.9375 -24.421875 14.117188 -25.171875 14.109375 -25.984375 L 14.109375 -27.796875 C 14.117188 -28.617188 13.941406 -29.375 13.578125 -30.0625 C 13.222656 -30.757812 12.515625 -31.109375 11.453125 -31.109375 C 10.460938 -31.109375 9.78125 -30.753906 9.40625 -30.046875 C 9.039062 -29.335938 8.847656 -28.585938 8.828125 -27.796875 Z M 8.828125 -27.796875 "/></g></g></g></svg>